<svg id="svg" version="1.1" xmlns="http://www.w3.org/2000/svg" xmlns:xlink="http://www.w3.org/1999/xlink" width="400"
    height="435.55555555555554" viewBox="0, 0, 400,435.55555555555554">
    <g id="svgg">
        <path id="path1"
            d="M155.600 0.411 C 153.510 0.569,150.933 0.905,149.874 1.157 C 148.815 1.409,147.787 1.516,147.590 1.394 C 147.394 1.272,146.910 1.348,146.516 1.562 C 146.122 1.775,144.090 2.351,142.000 2.841 C 124.711 6.891,102.740 20.816,95.035 32.606 C 91.220 38.444,88.033 41.012,81.400 43.593 C 79.640 44.278,77.660 45.086,77.000 45.389 C 74.875 46.365,65.556 49.659,64.647 49.756 C 64.162 49.808,63.577 49.967,63.345 50.111 C 62.646 50.543,56.517 50.933,55.732 50.595 C 55.329 50.423,54.598 50.320,54.107 50.368 C 53.615 50.416,52.993 50.319,52.724 50.153 C 52.454 49.986,51.835 49.808,51.349 49.756 C 49.378 49.546,41.863 46.514,34.648 43.019 C 24.247 37.981,20.631 36.387,18.991 36.121 C 18.226 35.997,17.600 35.739,17.600 35.548 C 17.600 35.094,15.785 35.100,14.895 35.557 C 14.513 35.753,13.192 36.203,11.959 36.558 C 7.346 37.887,3.127 41.457,1.307 45.572 C 0.193 48.091,0.193 53.730,1.307 56.800 C 1.426 57.130,2.009 59.014,2.602 60.986 C 5.454 70.478,11.565 79.790,21.563 89.882 C 24.223 92.568,26.400 94.832,26.400 94.914 C 26.400 94.996,24.724 96.442,22.676 98.127 C 17.694 102.226,17.012 103.452,16.961 108.400 C 16.939 110.490,17.063 112.470,17.236 112.800 C 17.409 113.130,18.007 114.445,18.564 115.723 C 20.998 121.305,29.064 127.159,37.453 129.429 C 38.854 129.808,40.000 130.283,40.000 130.483 C 40.000 130.683,40.179 130.737,40.397 130.602 C 40.615 130.467,42.521 130.816,44.633 131.378 C 46.744 131.940,48.815 132.400,49.236 132.400 C 49.656 132.400,50.000 132.544,50.000 132.720 C 50.000 132.896,50.630 132.966,51.400 132.876 C 52.170 132.786,52.800 132.872,52.800 133.067 C 52.800 133.262,53.520 133.352,54.400 133.269 C 55.280 133.185,56.000 133.288,56.000 133.499 C 56.000 133.718,56.858 133.800,58.000 133.690 C 59.171 133.578,60.000 133.661,60.000 133.890 C 60.000 134.120,60.825 134.203,61.983 134.092 C 63.074 133.987,64.289 134.030,64.683 134.188 C 65.077 134.345,66.300 134.519,67.400 134.573 C 75.350 134.968,75.213 134.872,78.037 142.038 C 79.286 145.207,81.503 150.500,82.963 153.800 C 86.493 161.777,87.695 165.556,87.753 168.862 C 87.779 170.326,87.935 171.440,88.100 171.338 C 88.265 171.236,88.400 171.534,88.400 172.000 C 88.400 172.466,88.265 172.764,88.100 172.662 C 87.935 172.560,87.793 173.584,87.785 174.938 C 87.746 181.361,83.099 187.426,64.354 205.511 C 45.097 224.091,37.048 234.706,27.412 254.232 C 23.057 263.058,19.940 271.027,18.407 277.254 C 17.738 279.974,17.012 282.851,16.795 283.646 C 16.578 284.442,16.400 285.578,16.400 286.170 C 16.400 286.762,16.247 287.153,16.060 287.037 C 15.873 286.922,15.806 287.721,15.911 288.813 C 16.016 289.906,15.944 290.800,15.751 290.800 C 15.558 290.800,15.464 292.347,15.543 294.237 C 15.632 296.402,15.521 297.839,15.243 298.117 C 14.648 298.712,14.656 305.696,15.253 306.293 C 15.558 306.598,15.646 308.184,15.523 311.173 C 15.417 313.724,15.496 315.600,15.707 315.600 C 15.909 315.600,16.012 316.590,15.937 317.801 C 15.862 319.011,15.912 320.001,16.048 320.001 C 16.185 320.000,16.446 321.125,16.628 322.500 C 16.811 323.875,17.022 325.360,17.098 325.800 C 17.175 326.240,17.297 327.140,17.371 327.800 C 17.444 328.460,17.617 329.270,17.754 329.600 C 17.892 329.930,18.049 330.920,18.102 331.800 C 18.156 332.680,18.306 333.490,18.435 333.600 C 18.565 333.710,19.080 335.600,19.580 337.800 C 20.081 340.000,20.626 341.980,20.792 342.200 C 20.957 342.420,21.589 344.130,22.195 346.000 C 22.801 347.870,24.175 351.262,25.248 353.538 C 26.322 355.813,27.200 357.778,27.200 357.903 C 27.200 358.360,31.012 364.714,33.737 368.800 C 50.330 393.675,79.035 414.585,109.600 424.064 C 111.690 424.712,113.670 425.350,114.000 425.481 C 114.984 425.874,115.167 425.923,121.200 427.415 C 124.390 428.203,127.270 428.948,127.600 429.070 C 127.930 429.193,128.780 429.353,129.489 429.426 C 130.197 429.500,131.097 429.731,131.489 429.939 C 131.880 430.148,133.235 430.448,134.500 430.606 C 135.765 430.763,136.800 431.020,136.800 431.177 C 136.800 431.333,137.340 431.382,138.000 431.285 C 138.660 431.188,139.201 431.265,139.201 431.455 C 139.202 431.645,140.377 431.838,141.813 431.884 C 143.249 431.930,144.643 432.103,144.912 432.269 C 145.180 432.435,145.891 432.519,146.491 432.456 C 147.091 432.393,147.790 432.470,148.044 432.627 C 148.299 432.785,149.158 432.955,149.953 433.007 C 150.749 433.059,152.480 433.212,153.800 433.346 C 155.120 433.481,156.688 433.591,157.284 433.591 C 157.881 433.590,159.141 433.761,160.084 433.970 C 165.353 435.139,203.014 435.301,212.400 434.195 C 214.562 433.940,222.214 433.304,226.453 433.027 C 227.472 432.960,228.512 432.778,228.763 432.623 C 229.014 432.467,229.891 432.378,230.710 432.424 C 231.530 432.469,232.517 432.373,232.905 432.209 C 233.293 432.045,234.148 431.990,234.805 432.086 C 235.462 432.183,236.000 432.094,236.000 431.889 C 236.000 431.684,236.720 431.585,237.600 431.669 C 238.480 431.752,239.200 431.662,239.200 431.469 C 239.200 431.275,239.920 431.185,240.800 431.269 C 241.680 431.352,242.400 431.305,242.400 431.162 C 242.400 431.020,243.516 430.777,244.880 430.623 C 246.245 430.468,247.659 430.183,248.023 429.988 C 248.387 429.793,249.476 429.557,250.443 429.464 C 251.409 429.370,252.515 429.164,252.900 429.004 C 253.285 428.845,253.870 428.818,254.200 428.945 C 254.530 429.071,254.800 429.035,254.800 428.865 C 254.800 428.459,261.912 427.098,262.414 427.408 C 262.626 427.540,262.800 427.471,262.800 427.256 C 262.800 426.923,265.149 426.177,267.207 425.857 C 267.541 425.805,267.991 425.656,268.207 425.527 C 268.423 425.397,270.040 424.904,271.800 424.431 C 306.626 415.067,340.512 393.736,361.448 368.000 C 362.075 367.230,362.680 366.510,362.794 366.400 C 363.199 366.007,368.696 358.564,370.030 356.600 C 378.338 344.377,385.057 330.922,390.102 316.405 C 391.211 313.212,392.273 310.540,392.462 310.466 C 392.651 310.392,392.711 310.180,392.597 309.994 C 392.482 309.809,392.957 307.619,393.653 305.129 C 395.350 299.054,396.657 293.374,397.213 289.660 C 397.465 287.977,397.763 286.330,397.876 286.000 C 397.989 285.670,398.147 284.680,398.228 283.800 C 398.309 282.920,398.453 281.570,398.547 280.800 C 399.274 274.886,399.400 271.902,399.400 260.600 C 399.400 248.076,399.256 245.205,398.149 235.600 C 398.035 234.610,397.910 233.080,397.871 232.200 C 397.832 231.320,397.695 230.510,397.567 230.400 C 397.220 230.103,396.331 223.235,396.586 222.823 C 396.706 222.628,396.655 222.408,396.471 222.334 C 396.287 222.260,395.852 220.850,395.504 219.200 C 394.382 213.880,391.681 205.453,390.019 202.086 C 389.128 200.283,388.400 198.688,388.400 198.541 C 388.400 198.088,383.619 190.067,381.675 187.259 C 374.295 176.597,364.128 167.137,356.600 163.928 C 353.350 162.543,352.732 162.313,351.800 162.144 C 341.889 160.347,337.737 163.851,328.892 181.473 C 319.275 200.636,308.846 211.183,298.896 211.809 C 297.934 211.870,297.039 212.028,296.907 212.160 C 296.518 212.548,294.400 212.435,294.400 212.025 C 294.400 211.819,293.770 211.753,293.000 211.877 C 292.111 212.022,291.600 211.944,291.600 211.665 C 291.600 211.423,291.348 211.322,291.040 211.440 C 290.063 211.815,282.166 208.479,270.400 202.722 C 264.130 199.654,257.339 196.413,255.309 195.519 C 253.195 194.588,251.726 193.719,251.871 193.485 C 252.010 193.260,251.933 193.194,251.700 193.338 C 251.467 193.482,249.145 192.768,246.538 191.752 C 240.168 189.267,229.715 186.128,223.600 184.862 C 220.850 184.293,218.551 183.718,218.490 183.584 C 218.430 183.451,217.845 183.420,217.190 183.516 C 216.534 183.612,216.000 183.508,216.000 183.283 C 216.000 183.058,215.680 182.959,215.288 183.061 C 214.897 183.163,214.046 183.046,213.398 182.799 L 212.220 182.351 213.845 181.276 C 214.739 180.684,216.534 179.493,217.835 178.630 C 237.882 165.322,255.290 140.154,260.644 116.737 C 261.215 114.242,261.775 111.930,261.889 111.600 C 262.003 111.270,262.148 110.550,262.212 110.000 C 262.276 109.450,262.413 108.460,262.516 107.800 C 263.457 101.776,263.741 89.274,263.057 84.000 C 262.872 82.570,262.677 80.950,262.625 80.400 C 262.573 79.850,262.399 79.104,262.238 78.741 C 262.078 78.379,261.987 77.839,262.036 77.541 C 262.086 77.244,262.020 76.730,261.890 76.400 C 261.760 76.070,261.257 74.000,260.773 71.800 C 255.220 46.586,234.639 22.035,208.967 10.000 C 205.032 8.155,193.352 4.000,192.102 4.000 C 191.826 4.000,191.600 3.809,191.600 3.576 C 191.600 3.343,191.419 3.265,191.197 3.402 C 190.819 3.636,184.916 2.638,183.600 2.118 C 183.270 1.988,182.598 1.920,182.107 1.968 C 181.615 2.016,181.006 1.928,180.753 1.771 C 180.500 1.615,179.732 1.430,179.047 1.361 C 178.361 1.292,177.170 1.147,176.400 1.039 C 170.069 0.154,162.154 -0.085,155.600 0.411 M175.600 10.588 C 177.030 10.716,178.560 10.873,179.000 10.936 C 179.440 11.000,180.835 11.196,182.100 11.372 C 183.365 11.548,184.400 11.846,184.400 12.034 C 184.400 12.221,184.668 12.272,184.996 12.146 C 185.703 11.875,190.846 12.971,193.747 14.012 C 219.818 23.360,238.220 40.208,248.998 64.600 C 249.940 66.732,251.275 71.555,251.031 71.949 C 250.901 72.160,250.997 72.399,251.243 72.481 C 251.490 72.563,251.716 73.478,251.746 74.513 C 251.776 75.548,251.935 76.396,252.100 76.398 C 252.265 76.399,252.400 76.862,252.400 77.426 C 252.400 77.991,252.578 78.786,252.796 79.192 C 253.666 80.817,254.136 96.760,253.498 103.000 C 250.296 134.345,232.299 160.066,201.185 177.767 C 193.283 182.263,193.189 182.329,192.578 183.790 C 192.260 184.552,192.002 186.305,192.004 187.687 L 192.007 190.200 194.886 190.310 C 196.470 190.371,197.863 190.551,197.983 190.710 C 198.102 190.870,199.280 191.047,200.600 191.105 C 201.920 191.162,203.270 191.319,203.600 191.453 C 203.930 191.586,204.650 191.740,205.200 191.794 C 207.195 191.989,210.235 192.460,211.800 192.816 C 212.680 193.017,213.985 193.185,214.700 193.190 C 215.415 193.196,216.002 193.335,216.003 193.500 C 216.005 193.665,217.040 193.843,218.302 193.895 C 219.564 193.948,220.651 194.153,220.718 194.353 C 220.784 194.552,221.155 194.632,221.542 194.531 C 222.296 194.334,226.167 195.139,230.400 196.374 C 239.048 198.896,241.575 199.751,246.800 201.926 C 249.990 203.253,253.950 204.998,255.600 205.803 C 260.520 208.203,268.863 212.376,277.948 216.981 L 286.495 221.313 292.548 221.033 C 295.876 220.879,299.140 220.681,299.800 220.593 C 302.728 220.202,303.437 220.082,304.000 219.881 C 304.330 219.763,305.860 219.297,307.400 218.846 C 317.737 215.817,327.379 205.436,336.561 187.450 C 345.712 169.525,346.359 168.964,353.604 172.667 C 364.833 178.406,377.941 195.438,383.721 211.800 C 385.839 217.793,386.527 220.271,386.215 220.775 C 386.094 220.971,386.173 221.192,386.391 221.266 C 386.609 221.340,386.835 222.300,386.894 223.400 C 386.952 224.500,387.149 225.509,387.330 225.642 C 387.512 225.775,387.692 227.151,387.730 228.699 C 387.769 230.247,387.909 231.448,388.043 231.368 C 388.705 230.973,389.723 248.128,389.742 260.000 C 389.746 262.380,389.381 274.673,389.148 280.000 C 389.039 282.489,388.227 287.200,387.907 287.200 C 387.712 287.200,387.676 287.399,387.826 287.642 C 388.174 288.204,387.198 294.000,386.756 294.000 C 386.574 294.000,386.520 294.248,386.636 294.550 C 386.825 295.042,385.943 299.251,385.327 300.800 C 385.196 301.130,385.037 301.670,384.973 302.000 C 382.312 315.763,370.518 340.365,359.373 355.400 C 343.385 376.970,315.794 398.520,293.800 406.617 C 292.700 407.021,291.439 407.580,290.998 407.858 C 289.331 408.909,282.282 411.217,281.450 410.985 C 280.854 410.818,280.760 410.859,281.136 411.120 C 281.869 411.628,273.791 414.370,263.200 417.208 C 261.016 417.793,250.525 420.036,249.380 420.163 C 248.929 420.213,248.344 420.387,248.081 420.550 C 247.817 420.713,246.612 420.881,245.402 420.923 C 244.191 420.965,243.201 421.155,243.201 421.344 C 243.200 421.533,242.570 421.614,241.800 421.524 C 241.030 421.434,240.400 421.523,240.400 421.722 C 240.400 421.921,239.680 422.015,238.800 421.931 C 237.920 421.848,237.200 421.937,237.200 422.130 C 237.200 422.323,236.390 422.416,235.400 422.337 C 234.410 422.259,233.600 422.349,233.600 422.537 C 233.600 422.726,232.790 422.816,231.800 422.737 C 230.810 422.659,230.000 422.752,230.000 422.945 C 230.000 423.138,228.920 423.218,227.600 423.123 C 226.280 423.027,225.200 423.069,225.200 423.215 C 225.200 423.594,218.984 424.143,209.200 424.629 C 202.832 424.945,170.346 424.960,164.800 424.649 C 156.039 424.158,150.365 423.580,150.598 423.203 C 150.694 423.047,149.879 423.006,148.787 423.111 C 147.694 423.216,146.800 423.139,146.800 422.940 C 146.800 422.742,146.080 422.648,145.200 422.731 C 144.320 422.815,143.598 422.730,143.596 422.542 C 143.594 422.354,142.471 422.161,141.101 422.113 C 139.730 422.065,138.557 421.872,138.495 421.684 C 138.432 421.495,137.845 421.420,137.190 421.516 C 136.536 421.612,135.999 421.535,135.998 421.345 C 135.997 421.155,135.252 420.957,134.342 420.905 C 132.278 420.786,128.000 419.609,128.000 419.160 C 128.000 418.976,127.755 418.919,127.456 419.034 C 126.067 419.567,111.048 414.916,101.200 410.903 C 64.436 395.923,38.904 369.429,29.404 336.400 C 28.170 332.109,26.101 323.356,26.001 322.000 C 25.836 319.759,25.652 318.506,25.398 317.888 C 25.237 317.496,25.210 316.648,25.339 316.003 C 25.472 315.339,25.386 314.715,25.141 314.564 C 24.881 314.403,24.784 313.512,24.897 312.336 C 25.000 311.258,24.931 310.281,24.742 310.164 C 24.337 309.914,24.274 296.660,24.676 296.257 C 24.828 296.106,24.904 295.086,24.846 293.991 C 24.788 292.896,24.889 291.998,25.070 291.996 C 25.252 291.994,25.438 290.897,25.484 289.557 C 25.530 288.218,25.753 286.898,25.980 286.624 C 26.207 286.350,26.285 286.018,26.152 285.886 C 26.020 285.753,26.192 284.690,26.535 283.522 C 26.878 282.355,27.727 279.330,28.421 276.800 C 29.115 274.270,29.948 271.570,30.272 270.800 C 30.596 270.030,31.542 267.600,32.375 265.400 C 36.017 255.774,42.815 244.172,50.397 234.642 C 56.807 226.586,60.359 222.754,73.796 209.400 C 93.000 190.315,95.069 187.582,96.667 179.190 C 97.022 177.325,97.391 175.530,97.487 175.200 C 97.778 174.199,97.714 169.048,97.402 168.293 C 97.241 167.905,97.195 167.140,97.299 166.593 C 97.404 166.047,97.370 165.600,97.225 165.600 C 97.079 165.600,96.728 164.475,96.445 163.100 C 95.901 160.457,92.039 150.232,90.819 148.200 C 88.146 143.752,84.884 133.290,85.962 132.624 C 86.210 132.470,86.308 132.176,86.181 131.969 C 86.053 131.762,86.849 130.019,87.950 128.096 C 92.329 120.447,92.626 116.607,89.638 106.272 C 88.950 103.892,88.481 101.793,88.596 101.607 C 88.711 101.421,88.629 101.208,88.415 101.134 C 86.990 100.645,86.596 89.173,87.757 82.000 C 88.962 74.558,95.459 52.903,98.378 46.600 C 98.786 45.720,99.691 43.775,100.391 42.277 C 107.073 27.971,133.121 12.030,152.157 10.596 C 153.454 10.498,154.575 10.359,154.647 10.286 C 154.859 10.074,172.736 10.332,175.600 10.588 M141.429 32.048 C 141.514 32.185,140.912 32.391,140.092 32.506 C 131.269 33.745,120.141 44.253,117.426 53.909 C 114.389 64.708,117.988 73.527,126.469 76.068 C 127.311 76.320,128.000 76.661,128.000 76.826 C 128.000 76.990,128.357 77.032,128.794 76.917 C 129.231 76.803,129.906 76.837,130.294 76.992 C 131.111 77.319,135.115 77.372,136.000 77.068 C 136.330 76.955,137.320 76.748,138.200 76.608 C 146.316 75.316,157.826 63.800,160.626 54.171 C 161.332 51.742,162.015 45.200,161.563 45.200 C 161.421 45.200,161.200 44.555,161.072 43.767 C 160.262 38.776,154.501 33.415,148.985 32.520 C 148.223 32.396,147.600 32.184,147.599 32.048 C 147.599 31.911,146.176 31.800,144.437 31.800 C 142.698 31.800,141.345 31.912,141.429 32.048 M149.679 42.555 C 154.366 45.639,151.338 56.519,144.110 62.570 C 139.555 66.384,134.621 68.240,138.242 64.778 C 139.537 63.539,143.600 57.959,143.600 57.418 C 143.600 57.298,142.835 57.190,141.900 57.177 C 140.965 57.164,139.485 57.027,138.610 56.872 L 137.020 56.590 140.510 53.675 C 144.643 50.223,144.587 50.469,141.744 48.323 C 139.691 46.772,139.243 46.606,136.744 46.465 C 133.524 46.283,133.464 46.164,135.692 44.374 C 139.019 41.701,146.836 40.684,149.679 42.555 M17.749 45.635 C 18.601 45.871,22.111 47.425,25.549 49.088 C 38.421 55.315,41.120 56.483,45.800 57.855 C 51.919 59.649,51.747 59.610,54.690 59.880 C 56.060 60.005,57.084 60.264,56.967 60.454 C 56.849 60.644,57.674 60.800,58.800 60.800 C 60.063 60.800,60.753 60.647,60.600 60.400 C 60.453 60.161,60.937 60.000,61.801 60.000 C 62.598 60.000,64.184 59.713,65.325 59.361 C 70.828 57.668,76.972 55.516,80.534 54.036 C 86.051 51.742,85.920 51.690,85.036 55.800 C 84.753 57.113,81.542 67.368,81.280 67.793 C 81.147 68.009,80.993 68.459,80.937 68.793 C 80.882 69.127,80.472 70.750,80.025 72.400 C 79.579 74.050,79.211 75.715,79.207 76.100 C 79.203 76.485,79.065 76.801,78.900 76.802 C 78.735 76.804,78.567 77.569,78.526 78.502 C 78.486 79.436,78.264 81.460,78.034 83.000 C 77.469 86.782,77.551 99.284,78.144 99.878 C 78.591 100.325,78.420 103.021,77.900 103.717 C 77.406 104.378,72.002 103.942,71.999 103.241 C 71.999 103.108,71.474 102.982,70.833 102.959 C 67.644 102.847,48.656 95.992,42.401 92.694 C 27.074 84.613,16.194 72.467,11.593 58.302 C 8.597 49.078,11.160 43.805,17.749 45.635 M63.910 63.024 C 61.785 64.177,61.461 66.334,62.826 70.237 C 63.420 71.937,63.586 73.122,63.418 74.459 C 63.016 77.645,66.248 80.576,68.928 79.456 C 70.452 78.819,72.000 77.051,72.000 75.946 C 72.000 75.536,72.138 75.200,72.307 75.200 C 72.956 75.200,72.128 68.219,71.283 66.562 C 69.461 62.992,66.546 61.593,63.910 63.024 M38.489 104.260 C 39.967 104.399,41.092 104.651,40.988 104.819 C 40.884 104.988,41.128 105.039,41.529 104.934 C 42.437 104.697,48.914 106.185,52.400 107.432 C 53.830 107.943,57.700 109.098,61.000 109.999 C 68.506 112.048,67.634 111.831,71.400 112.597 C 73.160 112.955,74.870 113.346,75.200 113.466 C 75.530 113.585,76.458 113.738,77.262 113.806 C 83.479 114.328,84.534 117.736,80.047 122.800 L 78.098 125.000 72.449 125.130 C 69.320 125.202,66.800 125.102,66.800 124.905 C 66.800 124.709,65.720 124.627,64.400 124.723 C 63.080 124.818,62.000 124.738,62.000 124.545 C 62.000 124.352,61.190 124.259,60.200 124.337 C 59.210 124.416,58.400 124.307,58.400 124.096 C 58.400 123.884,57.953 123.796,57.407 123.901 C 56.860 124.005,56.095 123.954,55.707 123.786 C 55.318 123.618,54.598 123.520,54.107 123.568 C 53.615 123.616,53.012 123.531,52.765 123.379 C 52.519 123.226,51.504 123.038,50.510 122.959 C 49.516 122.881,48.483 122.635,48.214 122.412 C 47.946 122.189,47.630 122.103,47.513 122.221 C 47.092 122.641,37.338 119.511,34.000 117.885 C 20.891 111.498,23.734 102.866,38.489 104.260 M144.661 223.308 C 144.408 223.477,143.349 223.578,142.309 223.532 C 141.269 223.486,140.294 223.572,140.143 223.724 C 139.991 223.876,139.481 224.000,139.009 224.000 C 137.492 224.000,131.945 225.610,129.435 226.779 C 128.096 227.403,126.317 228.197,125.483 228.544 C 113.758 233.411,99.703 246.266,93.057 258.200 C 88.966 265.546,87.614 269.648,85.279 281.800 C 84.805 284.265,85.135 299.301,85.704 301.200 C 85.803 301.530,86.277 303.870,86.757 306.400 C 91.815 333.065,109.694 353.617,137.400 364.616 C 141.695 366.321,155.022 370.400,156.298 370.400 C 156.574 370.400,156.800 370.591,156.800 370.824 C 156.800 371.057,156.963 371.146,157.163 371.023 C 157.619 370.741,163.600 371.651,163.600 372.002 C 163.600 372.145,164.140 372.182,164.800 372.085 C 165.464 371.988,166.000 372.091,166.000 372.317 C 166.000 372.542,166.357 372.632,166.794 372.517 C 167.231 372.403,167.906 372.440,168.294 372.600 C 168.682 372.760,169.540 372.937,170.200 372.995 C 177.838 373.660,181.084 373.796,188.800 373.775 C 197.059 373.753,204.548 373.469,211.200 372.927 C 212.630 372.810,214.636 372.666,215.658 372.607 C 216.680 372.547,217.688 372.393,217.897 372.264 C 218.106 372.135,219.473 371.977,220.935 371.914 C 222.397 371.851,223.595 371.701,223.597 371.580 C 223.599 371.459,224.725 371.129,226.100 370.847 C 227.475 370.565,229.140 370.087,229.800 369.785 C 230.460 369.482,232.080 368.843,233.400 368.364 C 241.770 365.325,257.107 357.465,264.800 352.270 C 286.901 337.345,307.239 306.358,312.042 280.292 C 312.315 278.811,312.682 277.600,312.857 277.600 C 313.032 277.600,313.089 277.375,312.985 277.100 C 312.880 276.825,313.059 274.800,313.382 272.600 C 315.182 260.350,314.839 251.740,312.502 250.576 C 312.009 250.330,311.724 250.010,311.869 249.864 C 312.014 249.719,311.713 249.600,311.200 249.600 C 310.687 249.600,310.377 249.710,310.512 249.845 C 310.647 249.980,308.382 250.898,305.479 251.885 C 302.575 252.872,299.480 254.034,298.600 254.467 C 293.377 257.036,273.496 264.230,272.804 263.802 C 272.582 263.665,272.400 263.712,272.400 263.908 C 272.400 264.343,268.470 265.291,267.964 264.978 C 267.764 264.854,267.600 264.915,267.600 265.112 C 267.600 265.310,266.295 265.709,264.700 265.999 C 263.105 266.290,261.501 266.676,261.136 266.859 C 259.292 267.778,243.182 268.145,239.000 267.362 C 233.995 266.425,232.000 265.901,232.000 265.523 C 232.000 265.320,231.816 265.267,231.591 265.406 C 230.281 266.215,221.072 261.749,215.600 257.651 C 211.860 254.850,204.489 247.554,199.720 241.931 C 191.287 231.988,177.603 224.000,169.003 224.000 C 168.305 224.000,167.616 223.882,167.472 223.739 C 166.977 223.244,145.368 222.836,144.661 223.308 M160.200 232.175 C 161.300 232.272,162.650 232.423,163.200 232.509 C 163.750 232.596,165.142 232.809,166.292 232.984 C 167.443 233.158,168.304 233.432,168.204 233.593 C 168.105 233.753,168.426 233.808,168.918 233.714 C 170.220 233.465,176.968 235.753,180.077 237.498 C 184.145 239.780,186.827 242.199,196.095 251.941 C 207.559 263.992,211.453 267.070,221.000 271.631 C 225.472 273.767,230.618 275.600,232.143 275.600 C 232.504 275.600,232.800 275.774,232.800 275.987 C 232.800 276.201,233.039 276.283,233.332 276.171 C 233.625 276.058,235.109 276.223,236.631 276.535 C 239.801 277.187,252.139 277.337,254.477 276.751 C 255.289 276.548,257.089 276.316,258.477 276.237 C 259.865 276.157,261.270 276.003,261.600 275.895 C 261.930 275.787,265.080 275.131,268.600 274.438 C 275.095 273.159,275.338 273.105,276.400 272.682 C 278.218 271.959,282.866 270.794,283.173 270.983 C 283.370 271.105,283.592 271.052,283.666 270.866 C 283.740 270.679,284.880 270.148,286.200 269.686 C 289.474 268.538,297.927 265.297,299.400 264.624 C 304.267 262.401,304.932 262.754,304.628 267.400 C 304.513 269.160,304.414 270.836,304.409 271.124 C 304.404 271.412,304.246 271.552,304.058 271.436 C 303.870 271.319,303.792 271.624,303.885 272.113 C 304.239 273.962,299.236 292.379,297.397 296.000 C 297.117 296.550,296.204 298.620,295.366 300.600 C 287.130 320.079,270.196 338.677,250.024 350.395 C 242.052 355.026,225.696 361.801,224.408 361.005 C 224.184 360.866,224.000 360.915,224.000 361.113 C 224.000 361.311,222.155 361.872,219.900 362.358 C 217.645 362.845,215.080 363.399,214.200 363.589 C 212.414 363.974,212.663 363.952,206.600 364.275 C 198.300 364.717,183.893 364.519,176.800 363.865 C 172.403 363.459,166.800 362.647,166.800 362.415 C 166.800 362.275,166.170 362.234,165.400 362.324 C 164.565 362.422,164.000 362.314,164.000 362.056 C 164.000 361.819,163.742 361.724,163.427 361.845 C 162.532 362.188,155.183 360.591,148.733 358.651 C 128.148 352.459,112.542 341.266,103.587 326.270 C 100.565 321.210,96.755 311.444,97.397 310.405 C 97.535 310.182,97.479 310.000,97.273 310.000 C 96.808 310.000,95.812 303.828,96.180 303.233 C 96.327 302.995,96.281 302.800,96.079 302.800 C 95.195 302.800,94.759 279.931,95.563 275.800 C 97.649 265.088,108.572 250.174,120.020 242.407 C 126.183 238.226,137.725 233.102,139.470 233.772 C 139.762 233.883,140.000 233.821,140.000 233.632 C 140.000 233.330,141.010 233.029,143.800 232.498 C 144.240 232.414,145.561 232.282,146.735 232.205 C 147.909 232.127,148.989 231.942,149.135 231.794 C 149.379 231.545,155.453 231.754,160.200 232.175 "
            stroke="none" fill-rule="evenodd"></path>
    </g>
    <style>
        path {
            fill: black;
            stroke-width: 50px;
        }

        @media (prefers-color-scheme: dark) {
            path {
                fill: white;
            }
        }
    </style>
</svg>